<?xml version="1.0" encoding="UTF-8"?>
<svg xmlns="http://www.w3.org/2000/svg" xmlns:xlink="http://www.w3.org/1999/xlink" width="3860" height="3860" viewBox="0 0 3860 3860">
<path fill-rule="nonzero" fill="rgb(11.376953%, 11.376953%, 10.594177%)" fill-opacity="1" d="M 3859.640625 1929.820312 C 3859.640625 2995.628906 2995.628906 3859.640625 1929.820312 3859.640625 C 864.011719 3859.640625 0 2995.628906 0 1929.820312 C 0 864.011719 864.011719 0 1929.820312 0 C 2995.628906 0 3859.640625 864.011719 3859.640625 1929.820312 "/>
<path fill-rule="nonzero" fill="rgb(96.875%, 96.875%, 96.09375%)" fill-opacity="1" d="M 1929.820312 184.691406 C 967.554688 184.691406 184.695312 967.558594 184.695312 1929.820312 C 184.695312 2892.089844 967.554688 3674.949219 1929.820312 3674.949219 C 2892.089844 3674.949219 3674.949219 2892.089844 3674.949219 1929.820312 C 3674.949219 967.558594 2892.089844 184.691406 1929.820312 184.691406 Z M 1929.820312 3691.28125 C 1692.03125 3691.28125 1461.351562 3644.699219 1244.179688 3552.851562 C 1034.429688 3464.128906 846.050781 3337.128906 684.28125 3175.359375 C 522.519531 3013.589844 395.511719 2825.21875 306.792969 2615.460938 C 214.9375 2398.289062 168.363281 2167.609375 168.363281 1929.820312 C 168.363281 1692.03125 214.9375 1461.351562 306.792969 1244.179688 C 395.511719 1034.429688 522.519531 846.050781 684.28125 684.28125 C 846.050781 522.519531 1034.429688 395.511719 1244.179688 306.789062 C 1461.351562 214.941406 1692.03125 168.359375 1929.820312 168.359375 C 2167.609375 168.359375 2398.289062 214.941406 2615.460938 306.789062 C 2825.21875 395.511719 3013.589844 522.519531 3175.359375 684.28125 C 3337.128906 846.050781 3464.128906 1034.429688 3552.851562 1244.179688 C 3644.699219 1461.351562 3691.28125 1692.03125 3691.28125 1929.820312 C 3691.28125 2167.609375 3644.699219 2398.289062 3552.851562 2615.460938 C 3464.128906 2825.21875 3337.128906 3013.589844 3175.359375 3175.359375 C 3013.589844 3337.128906 2825.21875 3464.128906 2615.460938 3552.851562 C 2398.289062 3644.699219 2167.609375 3691.28125 1929.820312 3691.28125 "/>
<path fill-rule="nonzero" fill="rgb(96.875%, 96.875%, 96.09375%)" fill-opacity="1" d="M 1929.820312 921.480469 C 1373.820312 921.480469 921.476562 1373.820312 921.476562 1929.820312 C 921.476562 2485.820312 1373.820312 2938.171875 1929.820312 2938.171875 C 2485.820312 2938.171875 2938.171875 2485.820312 2938.171875 1929.820312 C 2938.171875 1373.820312 2485.820312 921.480469 1929.820312 921.480469 Z M 1929.820312 2954.488281 C 1791.488281 2954.488281 1657.300781 2927.398438 1530.96875 2873.96875 C 1408.949219 2822.359375 1299.371094 2748.480469 1205.269531 2654.378906 C 1111.171875 2560.269531 1037.28125 2450.691406 985.675781 2328.671875 C 932.238281 2202.339844 905.148438 2068.148438 905.148438 1929.820312 C 905.148438 1791.488281 932.238281 1657.300781 985.675781 1530.96875 C 1037.28125 1408.949219 1111.171875 1299.371094 1205.269531 1205.269531 C 1299.371094 1111.171875 1408.949219 1037.28125 1530.96875 985.671875 C 1657.300781 932.238281 1791.488281 905.148438 1929.820312 905.148438 C 2068.148438 905.148438 2202.339844 932.238281 2328.671875 985.671875 C 2450.691406 1037.28125 2560.269531 1111.171875 2654.378906 1205.269531 C 2748.480469 1299.371094 2822.359375 1408.949219 2873.96875 1530.96875 C 2927.398438 1657.300781 2954.488281 1791.488281 2954.488281 1929.820312 C 2954.488281 2068.148438 2927.398438 2202.339844 2873.96875 2328.671875 C 2822.359375 2450.691406 2748.480469 2560.269531 2654.378906 2654.378906 C 2560.269531 2748.480469 2450.691406 2822.359375 2328.671875 2873.96875 C 2202.339844 2927.398438 2068.148438 2954.488281 1929.820312 2954.488281 "/>
<path fill-rule="nonzero" fill="rgb(94.921875%, 94.921875%, 94.921875%)" fill-opacity="1" d="M 584.261719 1589.230469 C 530.859375 1579.390625 487.371094 1610.398438 478.121094 1660.578125 C 468.871094 1710.769531 498.449219 1755.238281 551.847656 1765.078125 C 605.242188 1774.921875 648.734375 1743.921875 657.984375 1693.730469 C 667.234375 1643.550781 637.65625 1599.070312 584.261719 1589.230469 Z M 539.710938 1830.929688 C 456.199219 1815.53125 406.359375 1739.101562 422.714844 1650.371094 C 438.996094 1562.039062 512.484375 1507.921875 596.398438 1523.390625 C 680.308594 1538.851562 729.671875 1615.621094 713.390625 1703.949219 C 697.039062 1792.671875 623.21875 1846.320312 539.710938 1830.929688 "/>
<path fill-rule="nonzero" fill="rgb(94.921875%, 94.921875%, 94.921875%)" fill-opacity="1" d="M 592.195312 1310.390625 L 569.648438 1359.339844 L 660.121094 1401.011719 L 682.667969 1352.070312 C 699.578125 1315.359375 691.0625 1288.960938 662.882812 1275.980469 C 634.328125 1262.828125 609.101562 1273.679688 592.195312 1310.390625 Z M 828.769531 1351.050781 L 733.40625 1367.800781 L 732.039062 1370.761719 L 707.957031 1423.050781 L 780.261719 1456.351562 L 752.589844 1516.421875 L 493.03125 1396.859375 L 544.785156 1284.511719 C 576.726562 1215.171875 632.679688 1188.351562 690.894531 1215.171875 C 729.828125 1233.101562 749.324219 1265.910156 748.242188 1306.308594 L 858.488281 1286.53125 L 828.769531 1351.050781 "/>
<path fill-rule="nonzero" fill="rgb(94.921875%, 94.921875%, 94.921875%)" fill-opacity="1" d="M 882.714844 1014.140625 L 920.195312 966.75 L 1011.140625 1038.671875 C 1010.210938 1078.011719 993.296875 1119.800781 967.972656 1151.820312 C 912.261719 1222.269531 822.882812 1235.910156 755.316406 1182.480469 C 687.75 1129.050781 680.421875 1038.929688 736.894531 967.519531 C 768.039062 928.140625 807.320312 906.109375 849.835938 904.339844 L 854.242188 961.949219 C 824.035156 964.609375 801.089844 977.171875 783.109375 999.910156 C 748.667969 1043.460938 754.257812 1096.28125 796.847656 1129.960938 C 838.796875 1163.128906 892.128906 1156.910156 926.0625 1114 C 937.203125 1099.910156 945.023438 1084.75 948.363281 1066.050781 L 882.714844 1014.140625 "/>
<path fill-rule="nonzero" fill="rgb(94.921875%, 94.921875%, 94.921875%)" fill-opacity="1" d="M 1135.019531 833.449219 L 1032.078125 774.921875 L 1063.488281 889.101562 Z M 1182.289062 860.300781 L 1077.570312 941.761719 L 1095.191406 1005.640625 L 1041.699219 1047.25 L 966.773438 743.488281 L 1018.328125 703.390625 L 1294.640625 850.480469 L 1239.859375 893.089844 L 1182.289062 860.300781 "/>
<path fill-rule="nonzero" fill="rgb(94.921875%, 94.921875%, 94.921875%)" fill-opacity="1" d="M 1435.769531 477.898438 L 1550.738281 739.53125 L 1501.03125 761.371094 L 1300.789062 659.851562 L 1370.601562 818.691406 L 1310.800781 844.96875 L 1195.828125 583.351562 L 1245.910156 561.339844 L 1445.78125 663.03125 L 1375.96875 504.179688 L 1435.769531 477.898438 "/>
<path fill-rule="nonzero" fill="rgb(94.921875%, 94.921875%, 94.921875%)" fill-opacity="1" d="M 1552.878906 448.699219 L 1617.320312 433.839844 L 1681.558594 712.289062 L 1617.121094 727.160156 L 1552.878906 448.699219 "/>
<path fill-rule="nonzero" fill="rgb(94.921875%, 94.921875%, 94.921875%)" fill-opacity="1" d="M 1724.199219 553.769531 C 1719.78125 467.75 1782.660156 402.800781 1871.539062 398.238281 C 1920.871094 395.710938 1962.960938 411.53125 1991.539062 442.761719 L 1951.148438 484.078125 C 1930.859375 463.050781 1906.21875 452.871094 1877.691406 454.328125 C 1824.28125 457.070312 1788.289062 496.53125 1791.050781 550.339844 C 1793.820312 604.148438 1833.660156 639.710938 1887.058594 636.96875 C 1915.601562 635.5 1939.070312 622.859375 1957.078125 599.449219 L 2001.480469 636.410156 C 1976.269531 670.808594 1936.019531 690.859375 1886.28125 693.421875 C 1797.820312 697.960938 1728.609375 639.789062 1724.199219 553.769531 "/>
<path fill-rule="nonzero" fill="rgb(94.921875%, 94.921875%, 94.921875%)" fill-opacity="1" d="M 2193.019531 563.441406 C 2217.328125 480.808594 2298.171875 440.328125 2383.550781 465.441406 C 2430.941406 479.378906 2465.421875 508.25 2482.058594 547.179688 L 2430.269531 572.800781 C 2418.078125 546.238281 2398.199219 528.480469 2370.78125 520.410156 C 2319.480469 505.320312 2272.460938 530.640625 2257.25 582.339844 C 2242.050781 634.03125 2267.871094 680.78125 2319.179688 695.871094 C 2346.589844 703.929688 2372.921875 699.761719 2397.671875 683.640625 L 2427.339844 733.210938 C 2392.160156 757.339844 2347.53125 762.929688 2299.75 748.878906 C 2214.769531 723.878906 2168.710938 646.078125 2193.019531 563.441406 "/>
<path fill-rule="nonzero" fill="rgb(94.921875%, 94.921875%, 94.921875%)" fill-opacity="1" d="M 2706.578125 779.800781 C 2734.058594 732.96875 2719.761719 681.511719 2675.738281 655.691406 C 2631.730469 629.871094 2579.828125 642.5 2552.359375 689.328125 C 2524.890625 736.160156 2539.191406 787.621094 2583.199219 813.441406 C 2627.21875 839.261719 2679.109375 826.628906 2706.578125 779.800781 Z M 2494.609375 655.449219 C 2537.578125 582.210938 2626.429688 561.449219 2704.25 607.101562 C 2781.710938 652.539062 2807.5 740.078125 2764.328125 813.679688 C 2721.160156 887.269531 2632.160156 907.46875 2554.699219 862.03125 C 2476.878906 816.378906 2451.648438 728.691406 2494.609375 655.449219 "/>
<path fill-rule="nonzero" fill="rgb(94.921875%, 94.921875%, 94.921875%)" fill-opacity="1" d="M 2927.921875 843.96875 L 2875.671875 898.5 L 2971.171875 990.011719 L 2934.460938 1028.328125 L 2838.960938 936.820312 L 2766.941406 1011.980469 L 2719.179688 966.230469 L 2916.878906 759.898438 L 3072.808594 909.300781 L 3036.101562 947.621094 L 2927.921875 843.96875 "/>
<path fill-rule="nonzero" fill="rgb(94.921875%, 94.921875%, 94.921875%)" fill-opacity="1" d="M 3128.808594 1070.761719 L 3066.558594 1113.519531 L 3141.449219 1222.550781 L 3097.699219 1252.601562 L 3022.808594 1143.570312 L 2937.011719 1202.511719 L 2899.558594 1148 L 3135.109375 986.199219 L 3257.378906 1164.210938 L 3213.640625 1194.261719 L 3128.808594 1070.761719 "/>
<path fill-rule="nonzero" fill="rgb(94.921875%, 94.921875%, 94.921875%)" fill-opacity="1" d="M 3172.5 1545.558594 L 3123.441406 1565.800781 L 3039.058594 1361.269531 L 3303.210938 1252.289062 L 3385.570312 1451.910156 L 3336.511719 1472.148438 L 3279.21875 1333.28125 L 3221.859375 1356.949219 L 3272.460938 1479.589844 L 3224.910156 1499.210938 L 3174.308594 1376.558594 L 3113.179688 1401.789062 L 3172.5 1545.558594 "/>
<path fill-rule="nonzero" fill="rgb(94.921875%, 94.921875%, 94.921875%)" fill-opacity="1" d="M 3225.46875 1818.851562 L 3173.21875 1828.089844 L 3134.660156 1610.21875 L 3416.050781 1560.421875 L 3453.679688 1773.070312 L 3401.421875 1782.320312 L 3375.238281 1634.390625 L 3314.140625 1645.199219 L 3337.261719 1775.851562 L 3286.609375 1784.808594 L 3263.488281 1654.171875 L 3198.371094 1665.691406 L 3225.46875 1818.851562 "/>
<path fill-rule="nonzero" fill="rgb(100%, 100%, 100%)" fill-opacity="1" d="M 1990.121094 2040.96875 C 1992.769531 2038.71875 1994.820312 2037.121094 1996.71875 2035.351562 C 2054.941406 1980.910156 2091.429688 1914.480469 2105.671875 1836.121094 C 2118.261719 1766.851562 2146.460938 1705.050781 2192.320312 1651.558594 C 2204.03125 1637.890625 2216.960938 1625.269531 2229.980469 1611.480469 C 2223.53125 1606.878906 2217.148438 1602.320312 2208.851562 1596.390625 C 2204.800781 1601.300781 2201.511719 1606.261719 2197.300781 1610.25 C 2138.5 1666.058594 2101.960938 1733.628906 2087.75 1813.589844 C 2075.988281 1879.820312 2048.839844 1939.488281 2004.679688 1990.28125 C 1991.710938 2005.199219 1984.820312 2019.160156 1989.339844 2038.269531 C 1989.460938 2038.761719 1989.621094 2039.238281 1990.121094 2040.96875 Z M 1705.359375 1755.570312 C 1704.300781 1788.539062 1704.871094 1820.070312 1710.648438 1851.378906 C 1720.710938 1905.921875 1743.761719 1954.5 1774.898438 2000.160156 C 1824.21875 2072.460938 1845.300781 2152.941406 1839.441406 2240.328125 C 1838.660156 2251.949219 1837.328125 2263.53125 1836.171875 2276.078125 C 1842.988281 2273.328125 1849.300781 2271.238281 1855.121094 2268.210938 C 1857.398438 2267.011719 1859.691406 2263.859375 1860.101562 2261.308594 C 1867.089844 2217.300781 1866.46875 2173.421875 1857.328125 2129.710938 C 1846.671875 2078.710938 1824.679688 2032.988281 1795.191406 1990.21875 C 1756.011719 1933.398438 1734.429688 1870.089844 1730.351562 1801.109375 C 1729.398438 1785.019531 1730.210938 1768.828125 1730.210938 1751.441406 C 1720.75 1753.011719 1713.289062 1754.25 1705.359375 1755.570312 Z M 1984.03125 1975.820312 C 1985.421875 1974.210938 1987.558594 1971.871094 1989.539062 1969.398438 C 2027.429688 1921.949219 2052.058594 1868.398438 2062.671875 1808.601562 C 2074.980469 1739.261719 2103.328125 1677.46875 2149.191406 1623.960938 C 2160.21875 1611.089844 2172.371094 1599.171875 2184.539062 1586.238281 C 2180.839844 1585.078125 2177.628906 1583.878906 2174.339844 1583.070312 C 2130.5 1572.269531 2088.609375 1579.761719 2048.628906 1598.449219 C 1968.148438 1636.050781 1914.53125 1699.238281 1879.078125 1779.300781 C 1877.109375 1783.761719 1879.359375 1785.511719 1881.878906 1787.910156 C 1913.53125 1818.03125 1938.078125 1853.308594 1954.851562 1893.449219 C 1966.039062 1920.21875 1974.359375 1948.199219 1984.03125 1975.820312 Z M 1890.308594 2244.808594 C 1890.449219 2244.71875 1891.378906 2244.289062 1892.070312 2243.609375 C 1895.699219 2240.101562 1899.410156 2236.648438 1902.828125 2232.941406 C 1925.949219 2207.789062 1942.140625 2178.449219 1950.738281 2145.691406 C 1981.339844 2029.089844 1958.980469 1922.859375 1884.410156 1828.351562 C 1856.859375 1793.429688 1821.558594 1768.121094 1777.78125 1756.410156 C 1770.519531 1754.46875 1763.039062 1753.390625 1755.578125 1751.890625 C 1752.960938 1774.511719 1756.289062 1819.828125 1761.601562 1846.078125 C 1772.210938 1898.5 1794.78125 1945.351562 1824.898438 1989.328125 C 1868.910156 2053.601562 1890.21875 2125.289062 1890.300781 2203.230469 C 1890.320312 2217.019531 1890.308594 2230.808594 1890.308594 2244.808594 Z M 2246.871094 1628.910156 C 2242.53125 1634.140625 2239.320312 1638.789062 2235.359375 1642.679688 C 2181.671875 1695.449219 2146.25 1758.328125 2132.75 1832.519531 C 2115.359375 1928.089844 2071.101562 2007.699219 1996.019531 2069.808594 C 1994.910156 2070.730469 1994.019531 2071.921875 1992.980469 2073.03125 C 1993.851562 2073.660156 1994.230469 2074.160156 1994.648438 2074.199219 C 1996.769531 2074.378906 1998.890625 2074.511719 2001.019531 2074.550781 C 2028.53125 2075.039062 2054.980469 2069.578125 2080.390625 2059.378906 C 2140.601562 2035.238281 2187.25 1994.199219 2223.511719 1941.28125 C 2268.898438 1875.039062 2293.730469 1802.578125 2284.550781 1721.121094 C 2280.820312 1688.058594 2269.558594 1657.671875 2246.871094 1628.910156 Z M 1680.839844 1767.140625 C 1679.878906 1766.859375 1678.910156 1766.578125 1677.949219 1766.308594 C 1675.210938 1767.808594 1672.410156 1769.210938 1669.730469 1770.828125 C 1631.109375 1794.191406 1607.089844 1829.179688 1591.628906 1870.53125 C 1569.199219 1930.53125 1567.390625 1992.058594 1580.578125 2054.191406 C 1594.761719 2120.949219 1623.511719 2180.25 1673.78125 2227.640625 C 1706.808594 2258.769531 1745.078125 2279.210938 1791.46875 2281.660156 C 1808.75 2282.578125 1808.910156 2282.691406 1811.261719 2266.160156 C 1817.148438 2224.738281 1816.128906 2183.511719 1807.820312 2142.441406 C 1797.21875 2090.011719 1774.359375 2043.300781 1744.140625 1999.421875 C 1706.921875 1945.398438 1686 1885.078125 1681.039062 1819.601562 C 1679.71875 1802.210938 1680.839844 1784.628906 1680.839844 1767.140625 Z M 1856.011719 1765.640625 C 1865.738281 1747.988281 1874.53125 1730.101562 1885.058594 1713.289062 C 1923.191406 1652.421875 1973.050781 1604.171875 2039.21875 1574.460938 C 2084.511719 1554.128906 2131.601562 1545.5 2180.589844 1558.488281 C 2242.058594 1574.789062 2280.671875 1615.710938 2300.328125 1674.871094 C 2318.910156 1730.789062 2315.738281 1787.289062 2298.789062 1842.828125 C 2269.550781 1938.648438 2213.648438 2014.621094 2126.328125 2065.550781 C 2084.640625 2089.859375 2039.628906 2102.980469 1990.738281 2099.730469 C 1989.71875 2099.660156 1988.671875 2099.949219 1987.859375 2100.050781 C 1983.929688 2117.058594 1980.789062 2134.03125 1976.039062 2150.539062 C 1964.390625 2191.019531 1945.140625 2227.421875 1914.789062 2257.199219 C 1858.171875 2312.75 1778.78125 2322.898438 1707.46875 2283.691406 C 1653.828125 2254.199219 1615.949219 2209.640625 1589.230469 2155.578125 C 1547.480469 2071.140625 1535.039062 1982.699219 1558.289062 1890.621094 C 1569.960938 1844.398438 1591.308594 1803.03125 1627.21875 1770.679688 C 1684.429688 1719.140625 1760.28125 1711.578125 1830.109375 1749.871094 C 1838.949219 1754.710938 1847.359375 1760.339844 1856.011719 1765.640625 "/>
<path fill-rule="nonzero" fill="rgb(100%, 100%, 100%)" fill-opacity="1" d="M 1771.941406 2238.71875 C 1772.089844 2250.730469 1761.761719 2257.621094 1753.359375 2252.300781 C 1736.371094 2241.550781 1719.96875 2229.808594 1703.761719 2217.890625 C 1698.179688 2213.78125 1698.238281 2205.800781 1702.371094 2200.738281 C 1706.699219 2195.449219 1713.5 2194.328125 1719.511719 2198.429688 C 1735.050781 2209.039062 1750.578125 2219.660156 1765.808594 2230.699219 C 1768.929688 2232.96875 1770.71875 2237.078125 1771.941406 2238.71875 "/>
<path fill-rule="nonzero" fill="rgb(100%, 100%, 100%)" fill-opacity="1" d="M 1667.441406 2147.761719 C 1677.300781 2147.570312 1696.769531 2172.71875 1694.03125 2182.101562 C 1691.511719 2190.730469 1680.769531 2194.578125 1674.339844 2188.210938 C 1667.628906 2181.550781 1661.589844 2173.910156 1656.628906 2165.859375 C 1651.691406 2157.808594 1658.128906 2147.929688 1667.441406 2147.761719 "/>
<path fill-rule="nonzero" fill="rgb(100%, 100%, 100%)" fill-opacity="1" d="M 1927.421875 1791.570312 C 1916.210938 1791.53125 1909.078125 1782.019531 1913.539062 1774.25 C 1923.800781 1756.390625 1935.039062 1739.058594 1946.578125 1721.980469 C 1950.550781 1716.109375 1958.25 1716.128906 1963.609375 1720.308594 C 1968.910156 1724.441406 1970.160156 1731.308594 1966.351562 1737.398438 C 1956.371094 1753.308594 1946.46875 1769.269531 1936.019531 1784.871094 C 1933.761719 1788.238281 1929.320312 1790.140625 1927.421875 1791.570312 "/>
<path fill-rule="nonzero" fill="rgb(100%, 100%, 100%)" fill-opacity="1" d="M 1982.621094 1712.488281 C 1979.960938 1710.179688 1974.988281 1707.820312 1973.589844 1704.109375 C 1972.191406 1700.390625 1972.789062 1693.960938 1975.261719 1691.128906 C 1981.148438 1684.421875 1988.390625 1678.75 1995.621094 1673.378906 C 2000.660156 1669.648438 2006.390625 1670.589844 2010.921875 1674.949219 C 2015.449219 1679.300781 2017.160156 1685.578125 2012.980469 1690.03125 C 2005.800781 1697.679688 1997.210938 1704.03125 1989.078125 1710.761719 C 1987.96875 1711.671875 1986.070312 1711.609375 1982.621094 1712.488281 "/>
<path fill-rule="nonzero" fill="rgb(94.921875%, 94.921875%, 94.921875%)" fill-opacity="1" d="M 1065.921875 2995.558594 C 1086.839844 2972.101562 1083.828125 2944.800781 1053.660156 2917.898438 L 1013.441406 2882.039062 L 947.417969 2956.078125 L 987.640625 2991.941406 C 1017.808594 3018.839844 1045.269531 3018.71875 1065.921875 2995.558594 Z M 1115.890625 3040.121094 C 1073.5 3087.648438 1011.5 3085.421875 954.515625 3034.609375 L 911.554688 2996.300781 L 859.117188 3055.109375 L 809.753906 3011.089844 L 999.945312 2797.800781 L 1092.269531 2880.128906 C 1149.25 2930.941406 1158.539062 2992.28125 1115.890625 3040.121094 "/>
<path fill-rule="nonzero" fill="rgb(94.921875%, 94.921875%, 94.921875%)" fill-opacity="1" d="M 1315.449219 3098.441406 L 1267.808594 3073.25 L 1221.25 3161.300781 L 1268.890625 3186.488281 C 1304.621094 3205.378906 1331.441406 3198.320312 1345.941406 3170.890625 C 1360.628906 3143.101562 1351.171875 3117.320312 1315.449219 3098.441406 Z M 1261.921875 3332.410156 L 1250.410156 3236.28125 L 1247.519531 3234.761719 L 1196.640625 3207.851562 L 1159.429688 3278.21875 L 1100.96875 3247.308594 L 1234.539062 2994.699219 L 1343.878906 3052.511719 C 1411.371094 3088.199219 1435.078125 3145.53125 1405.121094 3202.179688 C 1385.089844 3240.078125 1351.269531 3257.75 1310.988281 3254.460938 L 1324.710938 3365.621094 L 1261.921875 3332.410156 "/>
<path fill-rule="nonzero" fill="rgb(94.921875%, 94.921875%, 94.921875%)" fill-opacity="1" d="M 1670.378906 3411.359375 L 1657.109375 3462.738281 L 1442.890625 3407.378906 L 1514.390625 3130.710938 L 1723.46875 3184.75 L 1710.191406 3236.128906 L 1564.75 3198.539062 L 1549.21875 3258.621094 L 1677.671875 3291.808594 L 1664.800781 3341.609375 L 1536.351562 3308.410156 L 1519.800781 3372.441406 L 1670.378906 3411.359375 "/>
<path fill-rule="nonzero" fill="rgb(94.921875%, 94.921875%, 94.921875%)" fill-opacity="1" d="M 2060.289062 3479.851562 L 2056.289062 3308.441406 L 1975.171875 3451.417969 L 1945.378906 3452.039062 L 1858.820312 3316.25 L 1862.339844 3484 L 1800.300781 3485.300781 L 1794.308594 3199.609375 L 1849 3198.460938 L 1959.660156 3373.75 L 2061.238281 3194 L 2115.519531 3192.871094 L 2122.328125 3478.539062 L 2060.289062 3479.851562 "/>
<path fill-rule="nonzero" fill="rgb(94.921875%, 94.921875%, 94.921875%)" fill-opacity="1" d="M 2192.128906 3169.210938 L 2256.441406 3153.800781 L 2323.050781 3431.691406 L 2258.730469 3447.109375 L 2192.128906 3169.210938 "/>
<path fill-rule="nonzero" fill="rgb(94.921875%, 94.921875%, 94.921875%)" fill-opacity="1" d="M 2394.921875 3284.410156 L 2329.570312 3138.328125 L 2389.941406 3111.320312 L 2454.289062 3255.160156 C 2476.460938 3304.71875 2507.238281 3315.550781 2543.761719 3299.21875 C 2580.660156 3282.710938 2592.730469 3252.710938 2570.558594 3203.148438 L 2506.210938 3059.308594 L 2565.828125 3032.628906 L 2631.179688 3178.710938 C 2665.519531 3255.480469 2640.558594 3317.640625 2566.398438 3350.808594 C 2492.238281 3383.988281 2429.261719 3361.179688 2394.921875 3284.410156 "/>
<path fill-rule="nonzero" fill="rgb(94.921875%, 94.921875%, 94.921875%)" fill-opacity="1" d="M 3019.871094 3039.71875 L 2907.5 2910.21875 L 2936.171875 3072.089844 L 2913.621094 3091.570312 L 2760.359375 3042.140625 L 2870.03125 3169.128906 L 2823.058594 3209.691406 L 2636.289062 2993.410156 L 2677.691406 2957.660156 L 2874.710938 3022.148438 L 2838.351562 2818.910156 L 2879.441406 2783.421875 L 3066.828125 2999.171875 L 3019.871094 3039.71875 "/>
<path fill-rule="nonzero" fill="rgb(94.921875%, 94.921875%, 94.921875%)" fill-opacity="1" d="M 2946.328125 2074.578125 C 2946.328125 2074.578125 3415.980469 1956.550781 3632.03125 2351.558594 L 3497.089844 2716.550781 C 3497.089844 2716.550781 3242.910156 2376.179688 2837.789062 2387.308594 "/>
<path fill-rule="nonzero" fill="rgb(94.921875%, 94.921875%, 94.921875%)" fill-opacity="1" d="M 922.511719 2067.039062 C 922.511719 2067.039062 434.183594 1956.550781 218.132812 2351.558594 L 353.078125 2716.550781 C 353.078125 2716.550781 607.261719 2376.179688 1012.378906 2387.308594 "/>
<path fill-rule="nonzero" fill="rgb(0%, 0%, 0%)" fill-opacity="1" d="M 481.296875 2399.730469 L 491.742188 2422.191406 L 398.101562 2465.730469 L 341.871094 2344.789062 L 433.265625 2302.300781 L 443.707031 2324.761719 L 380.132812 2354.320312 L 392.339844 2380.578125 L 448.488281 2354.46875 L 458.609375 2376.238281 L 402.460938 2402.351562 L 415.472656 2430.339844 L 481.296875 2399.730469 "/>
<path fill-rule="nonzero" fill="rgb(0%, 0%, 0%)" fill-opacity="1" d="M 516.246094 2396.300781 L 515.945312 2370.808594 C 529.59375 2373.488281 547.207031 2371.609375 561.71875 2364.859375 C 578.308594 2357.148438 582.472656 2348.488281 579.015625 2341.058594 C 568.492188 2318.429688 505.40625 2366.671875 484.523438 2321.75 C 474.964844 2301.191406 483.597656 2276.378906 517.976562 2260.390625 C 533.179688 2253.320312 550.414062 2249.71875 564.941406 2251.578125 L 566.183594 2276.851562 C 551.980469 2275.679688 538.960938 2277.949219 528.246094 2282.929688 C 511.664062 2290.640625 508.160156 2299.839844 511.695312 2307.441406 C 522.058594 2329.71875 585.226562 2281.648438 605.871094 2326.050781 C 615.269531 2346.269531 606.542969 2371.328125 571.988281 2387.398438 C 552.8125 2396.320312 530.8125 2399.609375 516.246094 2396.300781 "/>
<path fill-rule="nonzero" fill="rgb(0%, 0%, 0%)" fill-opacity="1" d="M 636.472656 2235.550781 L 597.773438 2253.550781 L 587.171875 2230.738281 L 692.554688 2181.738281 L 703.160156 2204.539062 L 664.460938 2222.539062 L 710.085938 2320.671875 L 682.101562 2333.679688 L 636.472656 2235.550781 "/>
<path fill-rule="nonzero" fill="rgb(0%, 0%, 0%)" fill-opacity="1" d="M 759.683594 2278.699219 C 755.027344 2268.679688 759.402344 2258.660156 768.730469 2254.320312 C 778.0625 2249.980469 788.542969 2253.089844 793.203125 2263.109375 C 797.78125 2272.960938 793.644531 2283.5 784.316406 2287.839844 C 774.988281 2292.179688 764.265625 2288.539062 759.683594 2278.699219 "/>
<path fill-rule="nonzero" fill="rgb(0%, 0%, 0%)" fill-opacity="1" d="M 3093.519531 2187.480469 L 3050.128906 2313.601562 L 3020.949219 2303.558594 L 3056.269531 2200.859375 L 3031.050781 2192.191406 L 3039.101562 2168.769531 L 3093.519531 2187.480469 "/>
<path fill-rule="nonzero" fill="rgb(0%, 0%, 0%)" fill-opacity="1" d="M 3188.21875 2262.980469 C 3191.941406 2252.171875 3186.558594 2241.449219 3172.691406 2236.679688 C 3160.261719 2232.410156 3149.128906 2236.640625 3145.171875 2248.171875 C 3141.199219 2259.699219 3147.128906 2269.988281 3160.101562 2274.460938 C 3172.890625 2278.859375 3184.449219 2273.96875 3188.21875 2262.980469 Z M 3213.28125 2296.179688 C 3198.28125 2339.769531 3163.789062 2355.109375 3125.589844 2341.96875 C 3112.261719 2337.390625 3100.519531 2329.921875 3093.609375 2321.300781 L 3111.800781 2303.578125 C 3117.03125 2310.621094 3124.578125 2315.03125 3133.230469 2318.011719 C 3154.128906 2325.191406 3172.101562 2317.480469 3181.371094 2293.460938 C 3171.441406 2298.308594 3159.269531 2298.550781 3146.109375 2294.03125 C 3121.789062 2285.660156 3108.019531 2263.601562 3116.199219 2239.820312 C 3125.070312 2214.050781 3151.71875 2205.078125 3178.390625 2214.261719 C 3213.339844 2226.28125 3227.28125 2255.460938 3213.28125 2296.179688 "/>
<path fill-rule="nonzero" fill="rgb(0%, 0%, 0%)" fill-opacity="1" d="M 3320.820312 2308.578125 C 3324.53125 2297.78125 3319.148438 2287.058594 3305.28125 2282.289062 C 3292.851562 2278.011719 3281.71875 2282.238281 3277.761719 2293.769531 C 3273.789062 2305.300781 3279.71875 2315.601562 3292.691406 2320.058594 C 3305.480469 2324.460938 3317.03125 2319.578125 3320.820312 2308.578125 Z M 3345.859375 2341.78125 C 3330.871094 2385.378906 3296.378906 2400.71875 3258.179688 2387.578125 C 3244.851562 2382.988281 3233.109375 2375.53125 3226.199219 2366.910156 L 3244.390625 2349.191406 C 3249.621094 2356.230469 3257.171875 2360.640625 3265.820312 2363.609375 C 3286.71875 2370.808594 3304.691406 2363.078125 3313.960938 2339.070312 C 3304.03125 2343.921875 3291.851562 2344.160156 3278.699219 2339.640625 C 3254.378906 2331.269531 3240.609375 2309.199219 3248.789062 2285.421875 C 3257.660156 2259.660156 3284.308594 2250.691406 3310.980469 2259.871094 C 3345.929688 2271.890625 3359.871094 2301.070312 3345.859375 2341.78125 "/>
<path fill-rule="nonzero" fill="rgb(0%, 0%, 0%)" fill-opacity="1" d="M 3419.210938 2338.800781 C 3415.921875 2348.351562 3421.441406 2356.898438 3433.328125 2360.988281 C 3445.410156 2365.140625 3455.199219 2361.859375 3458.480469 2352.308594 C 3461.890625 2342.410156 3456.011719 2333.730469 3444.121094 2329.640625 C 3432.410156 2325.609375 3422.621094 2328.890625 3419.210938 2338.800781 Z M 3444.039062 2407.191406 C 3447.878906 2396.019531 3441.050781 2386.011719 3426.460938 2380.988281 C 3412.039062 2376.03125 3400.679688 2379.78125 3396.839844 2390.949219 C 3392.988281 2402.121094 3399.589844 2412.25 3414 2417.199219 C 3428.589844 2422.21875 3440.199219 2418.359375 3444.039062 2407.191406 Z M 3473.28125 2418.25 C 3465.101562 2442.03125 3438.691406 2449.671875 3406.621094 2438.640625 C 3374.738281 2427.671875 3358.800781 2405.46875 3366.980469 2381.691406 C 3371.628906 2368.171875 3382.128906 2360.5 3396.300781 2358.53125 C 3388.921875 2349.539062 3386.730469 2338.910156 3390.628906 2327.558594 C 3398.261719 2305.398438 3422.851562 2298.339844 3451.488281 2308.199219 C 3480.5 2318.179688 3495.550781 2338.871094 3487.921875 2361.03125 C 3484.019531 2372.378906 3475.578125 2379.351562 3464.230469 2381.890625 C 3474.371094 2392.230469 3477.929688 2404.738281 3473.28125 2418.25 "/>
</svg>
